<?xml version="1.0" encoding="utf-8"?>
<!-- Generator: Adobe Illustrator 27.5.0, SVG Export Plug-In . SVG Version: 6.00 Build 0)  -->
<svg version="1.1" id="Capa_1" xmlns="http://www.w3.org/2000/svg" xmlns:xlink="http://www.w3.org/1999/xlink" x="0px" y="0px"
	 viewBox="0 0 487.2 487.2" style="enable-background:new 0 0 487.2 487.2;" xml:space="preserve">
<style type="text/css">
	.st0{fill:#76A64D;}
</style>
<g>
	<g>
		<path class="st0" d="M304.4,317.3c-42.8-16.3-68.4-33-68.4-33l-32.9,104.2l-4.5,14.1l-14.8-41.8c33.9-47.3-2.6-49.5-8.9-49.6l0,0
			h-0.1h-0.1h-0.1h-0.1l0,0c-6.3,0-42.8,2.3-8.9,49.6l-14.7,41.8l-4.5-14.1l-32.9-104.2c0,0-25.6,16.7-68.4,33
			C-2,334.4,0.9,373.2,0,445.8h166h9h174.6C348.6,373.2,351.5,334.4,304.4,317.3z"/>
		<path class="st0" d="M100.7,218.1c3.8,24.5,22.6,55.6,53.7,66.6c12.7,4.5,26.7,4.5,39.4-0.1c30.6-11,50.1-42,53.8-66.5
			c4.1-0.3,9.5-6.1,15.3-26.7c8-28.2-0.5-32.3-7.7-31.6c1.4-3.9,2.4-7.7,3.1-11.6c12.2-72.9-23.7-75.4-23.7-75.4
			s-5.9-11.4-21.6-20.1c-10.5-6.2-25.1-11.1-44.4-9.4c-6.2,0.3-12.1,1.5-17.7,3.4l0,0c-7.1,2.4-13.6,5.9-19.5,10
			c-7.2,4.6-14,10.2-20,16.6c-9.5,9.7-18,22.3-21.7,38c-3.1,11.7-2.4,23.9,0.2,37.1l0,0c0.7,3.8,1.7,7.7,3.1,11.6
			c-7.2-0.7-15.6,3.5-7.7,31.6C91.1,212,96.5,217.8,100.7,218.1z"/>
		<path class="st0" d="M460.7,67.9c-35.4-35.4-92.8-35.4-128.2,0c-34.1,34.1-35.4,88.6-3.8,124.2l0.9,0.8
			c-3.4,7.4-9.3,16.5-18.7,21.1c-3.1,1.5-2.4,6.1,1,6.6c10.2,1.6,24.9-0.2,38.5-10.5l0.2,0.2c34.8,20.4,80.2,15.7,110-14.1
			C496.1,160.8,496.1,103.4,460.7,67.9z M357.5,143.8c-6.5,0-11.8-5.3-11.8-11.8s5.3-11.8,11.8-11.8s11.8,5.3,11.8,11.8
			C369.3,138.6,364,143.8,357.5,143.8z M396.6,143.8c-6.5,0-11.8-5.3-11.8-11.8s5.3-11.8,11.8-11.8s11.8,5.3,11.8,11.8
			C408.3,138.6,403.1,143.8,396.6,143.8z M435.6,143.8c-6.5,0-11.8-5.3-11.8-11.8s5.3-11.8,11.8-11.8s11.8,5.3,11.8,11.8
			C447.4,138.6,442.1,143.8,435.6,143.8z"/>
	</g>
</g>
</svg>
