<?xml version="1.0" encoding="utf-8"?>
<!-- Generator: Adobe Illustrator 25.2.1, SVG Export Plug-In . SVG Version: 6.00 Build 0)  -->
<svg version="1.1" id="Layer_1" xmlns="http://www.w3.org/2000/svg" xmlns:xlink="http://www.w3.org/1999/xlink" x="0px" y="0px"
	 viewBox="0 0 1046.14 217.29" style="enable-background:new 0 0 1046.14 217.29;" xml:space="preserve">
<style type="text/css">
	.st0{fill:#FFFFFF;}
	.st1{fill:#499CD3;stroke:#499CD3;stroke-width:3.1313;stroke-miterlimit:10;}
	.st2{fill:#FFFFFF;stroke:#499CD3;stroke-width:3.1313;stroke-miterlimit:10;}
	.st3{fill:none;stroke:#499CD3;stroke-width:3.1313;stroke-miterlimit:10;}
	.st4{fill:#499CD3;}
</style>
<polygon class="st0" points="123.96,108.65 108.25,92.94 113.76,87.43 123.96,97.64 154.13,67.47 159.64,72.97 "/>
<polygon class="st0" points="918.29,108.65 902.58,92.94 908.08,87.43 918.29,97.64 948.46,67.47 953.96,72.97 "/>
<polygon class="st0" points="655.97,108.65 640.26,92.94 645.77,87.43 655.97,97.64 686.14,67.47 691.65,72.97 "/>
<polygon class="st0" points="388.28,108.65 372.57,92.94 378.07,87.43 388.28,97.64 418.45,67.47 423.95,72.97 "/>
<circle class="st1" cx="133.84" cy="90.32" r="64.11"/>
<circle class="st2" cx="398.5" cy="90.32" r="64.11"/>
<circle class="st3" cx="664.33" cy="90.32" r="64.11"/>
<circle class="st2" cx="928.71" cy="90.32" r="64.11"/>
<g>
	<path class="st0" d="M130.29,75.74h-4.28v-4.78h9.57v33.54h-5.29V75.74z"/>
</g>
<g>
	<path class="st4" d="M387.71,100.22c7.91-6.95,16.24-13.02,16.24-19.6c0-3.5-1.52-5.89-5.43-5.89c-3.68,0-5.66,2.58-5.8,6.35h-5.06
		c0.18-7.27,4.88-10.81,10.81-10.81c6.81,0,10.67,4.09,10.67,10.12c0,8.14-8.28,14.35-13.66,19.28h14.58v4.37h-22.36V100.22z"/>
</g>
<g>
	<path class="st4" d="M932.2,97.5h-16.65v-3.96l15.46-22.17h6.35v21.58h4.28v4.55h-4.28v6.99h-5.15V97.5z M932.43,92.95V76.71
		l-10.86,16.24H932.43z"/>
</g>
<g>
	<path class="st4" d="M20.34,184.99c3.17,0,5.57,1.79,6.33,4.67h-3.57c-0.55-1.14-1.56-1.71-2.79-1.71c-1.99,0-3.36,1.48-3.36,3.84
		c0,2.36,1.37,3.84,3.36,3.84c1.23,0,2.24-0.57,2.79-1.71h3.57c-0.76,2.89-3.15,4.65-6.33,4.65c-3.93,0-6.71-2.79-6.71-6.78
		C13.63,187.8,16.4,184.99,20.34,184.99z"/>
	<path class="st4" d="M34.97,198.61c-3.78,0-6.86-2.83-6.86-6.84s3.08-6.82,6.86-6.82c3.8,0,6.82,2.81,6.82,6.82
		S38.75,198.61,34.97,198.61z M34.97,195.64c2.13,0,3.51-1.54,3.51-3.88c0-2.38-1.39-3.88-3.51-3.88c-2.17,0-3.53,1.5-3.53,3.88
		C31.43,194.11,32.8,195.64,34.97,195.64z"/>
	<path class="st4" d="M43.59,185.14h3.84l3.74,9.23l3.7-9.23h3.82v13.34h-3.25v-8l-2.98,8h-2.62l-3-8.02v8.02h-3.25V185.14z"/>
	<path class="st4" d="M66.3,193.69h-2.01v4.79h-3.25v-13.34h5.26c3.27,0,4.9,1.84,4.9,4.29C71.2,191.64,69.7,193.69,66.3,193.69z
		 M66.05,191.1c1.29,0,1.84-0.65,1.84-1.67c0-1.03-0.55-1.67-1.84-1.67h-1.77v3.34H66.05z"/>
	<path class="st4" d="M76.14,185.14v10.83h4.26v2.51h-7.5v-13.34H76.14z"/>
	<path class="st4" d="M90.12,187.74H85.2v2.7h4.35v2.51H85.2v2.93h4.92v2.6h-8.17v-13.34h8.17V187.74z"/>
	<path class="st4" d="M91.51,185.14h10.32v2.6h-3.53v10.73h-3.25v-10.73h-3.53V185.14z"/>
	<path class="st4" d="M111.63,187.74h-4.92v2.7h4.35v2.51h-4.35v2.93h4.92v2.6h-8.17v-13.34h8.17V187.74z"/>
	<path class="st4" d="M123.22,185.14c3.27,0,4.9,1.88,4.9,4.2c0,1.67-0.91,3.25-2.96,3.86l3.08,5.28h-3.67l-2.77-5.03h-0.78v5.03
		h-3.25v-13.34H123.22z M123.03,187.84h-2.01v3.31h2.01c1.22,0,1.79-0.63,1.79-1.67C124.82,188.48,124.25,187.84,123.03,187.84z"/>
	<path class="st4" d="M138.33,187.74h-4.92v2.7h4.35v2.51h-4.35v2.93h4.92v2.6h-8.17v-13.34h8.17V187.74z"/>
	<path class="st4" d="M152.88,189.36h-3.59c-0.49-0.89-1.41-1.37-2.62-1.37c-2.09,0-3.48,1.48-3.48,3.8c0,2.47,1.41,3.91,3.74,3.91
		c1.61,0,2.74-0.86,3.23-2.36h-4.12v-2.39h7.07v3.02c-0.68,2.3-2.91,4.6-6.42,4.6c-3.99,0-6.8-2.79-6.8-6.78
		c0-3.99,2.79-6.8,6.78-6.8C149.86,184.99,152.18,186.62,152.88,189.36z"/>
	<path class="st4" d="M154.91,185.14h3.25v13.34h-3.25V185.14z"/>
	<path class="st4" d="M165.34,198.61c-2.87,0-5.11-1.42-5.21-4.12h3.46c0.1,1.03,0.74,1.52,1.65,1.52c0.95,0,1.56-0.47,1.56-1.25
		c0-2.47-6.67-1.14-6.63-5.87c0-2.53,2.07-3.93,4.86-3.93c2.91,0,4.86,1.44,5,3.99h-3.51c-0.06-0.86-0.67-1.37-1.54-1.39
		c-0.78-0.02-1.37,0.38-1.37,1.22c0,2.32,6.59,1.27,6.59,5.74C170.21,196.75,168.46,198.61,165.34,198.61z"/>
	<path class="st4" d="M171.48,185.14h10.32v2.6h-3.53v10.73h-3.25v-10.73h-3.53V185.14z"/>
	<path class="st4" d="M188.88,185.14c3.27,0,4.9,1.88,4.9,4.2c0,1.67-0.91,3.25-2.96,3.86l3.08,5.28h-3.67l-2.77-5.03h-0.78v5.03
		h-3.25v-13.34H188.88z M188.69,187.84h-2.01v3.31h2.01c1.22,0,1.79-0.63,1.79-1.67C190.48,188.48,189.91,187.84,188.69,187.84z"/>
	<path class="st4" d="M204.12,196.12h-4.98l-0.8,2.36h-3.4l4.83-13.34h3.76l4.83,13.34h-3.44L204.12,196.12z M201.63,188.73
		l-1.63,4.88h3.29L201.63,188.73z"/>
	<path class="st4" d="M209.1,185.14h10.32v2.6h-3.53v10.73h-3.25v-10.73h-3.53V185.14z"/>
	<path class="st4" d="M221.05,185.14h3.25v13.34h-3.25V185.14z"/>
	<path class="st4" d="M232.96,198.61c-3.78,0-6.86-2.83-6.86-6.84s3.08-6.82,6.86-6.82c3.8,0,6.82,2.81,6.82,6.82
		S236.74,198.61,232.96,198.61z M232.96,195.64c2.13,0,3.51-1.54,3.51-3.88c0-2.38-1.39-3.88-3.51-3.88c-2.17,0-3.53,1.5-3.53,3.88
		C229.43,194.11,230.8,195.64,232.96,195.64z"/>
	<path class="st4" d="M253.52,185.14v13.34h-3.25l-5.43-8.23v8.23h-3.25v-13.34h3.25l5.43,8.26v-8.26H253.52z"/>
</g>
<g>
	<path class="st4" d="M303.04,193.12h-2.39v5.36h-2.17v-13.2h4.56c3.13,0,4.67,1.79,4.67,3.93
		C307.72,191.09,306.48,193.12,303.04,193.12z M303.04,191.35c1.69,0,2.45-0.82,2.45-2.15c0-1.37-0.76-2.17-2.45-2.17h-2.39v4.31
		H303.04z"/>
	<path class="st4" d="M314.35,185.27c3.13,0,4.67,1.8,4.67,3.95c0,1.56-0.84,3.23-3.06,3.78l3.27,5.47h-2.58l-3.04-5.28h-1.65v5.28
		h-2.17v-13.2H314.35z M314.35,187.04h-2.39v4.43h2.39c1.69,0,2.45-0.93,2.45-2.24C316.8,187.89,316.04,187.04,314.35,187.04z"/>
	<path class="st4" d="M327.82,198.61c-3.72,0-6.74-2.79-6.74-6.76c0-3.95,3.02-6.74,6.74-6.74c3.76,0,6.74,2.79,6.74,6.74
		C334.56,195.82,331.58,198.61,327.82,198.61z M327.82,196.73c2.62,0,4.52-1.9,4.52-4.88s-1.9-4.84-4.52-4.84s-4.52,1.86-4.52,4.84
		S325.2,196.73,327.82,196.73z"/>
	<path class="st4" d="M345.79,185.27h2.28l-4.96,13.2h-2.51l-4.98-13.2h2.32l3.91,10.98L345.79,185.27z"/>
	<path class="st4" d="M349.88,185.27h2.17v13.2h-2.17V185.27z"/>
	<path class="st4" d="M366.22,191.92c0,4.07-2.77,6.55-7.01,6.55h-4.31v-13.2h4.31C363.44,185.27,366.22,187.84,366.22,191.92z
		 M359.21,196.71c3.12,0,4.79-1.79,4.79-4.79c0-3.02-1.67-4.88-4.79-4.88h-2.15v9.67H359.21z"/>
	<path class="st4" d="M375.66,187.02h-5.13v3.88h4.56v1.77h-4.56v4.05h5.13v1.77h-7.29v-13.22h7.29V187.02z"/>
	<path class="st4" d="M387.82,193.12h-2.39v5.36h-2.17v-13.2h4.56c3.13,0,4.67,1.79,4.67,3.93
		C392.5,191.09,391.26,193.12,387.82,193.12z M387.82,191.35c1.69,0,2.45-0.82,2.45-2.15c0-1.37-0.76-2.17-2.45-2.17h-2.39v4.31
		H387.82z"/>
	<path class="st4" d="M399.13,185.27c3.13,0,4.67,1.8,4.67,3.95c0,1.56-0.84,3.23-3.06,3.78l3.27,5.47h-2.58l-3.04-5.28h-1.65v5.28
		h-2.17v-13.2H399.13z M399.13,187.04h-2.39v4.43h2.39c1.69,0,2.45-0.93,2.45-2.24C401.58,187.89,400.82,187.04,399.13,187.04z"/>
	<path class="st4" d="M412.6,198.61c-3.72,0-6.74-2.79-6.74-6.76c0-3.95,3.02-6.74,6.74-6.74c3.76,0,6.74,2.79,6.74,6.74
		C419.34,195.82,416.36,198.61,412.6,198.61z M412.6,196.73c2.62,0,4.52-1.9,4.52-4.88s-1.9-4.84-4.52-4.84s-4.52,1.86-4.52,4.84
		S409.98,196.73,412.6,196.73z"/>
	<path class="st4" d="M421.47,185.27h7.77v1.77h-5.6v3.89h4.37v1.77h-4.37v5.78h-2.17V185.27z"/>
	<path class="st4" d="M431.26,185.27h2.17v13.2h-2.17V185.27z"/>
	<path class="st4" d="M438.44,185.27v11.46h4.46v1.75h-6.63v-13.2H438.44z"/>
	<path class="st4" d="M452,187.02h-5.13v3.88h4.56v1.77h-4.56v4.05H452v1.77h-7.29v-13.22H452V187.02z"/>
	<path class="st4" d="M459.6,185.27h2.17v13.2h-2.17V185.27z"/>
	<path class="st4" d="M475.47,185.25v13.22h-2.17l-6.52-9.86v9.86h-2.17v-13.22h2.17l6.52,9.84v-9.84H475.47z"/>
	<path class="st4" d="M478.32,185.27h7.77v1.77h-5.6v3.89h4.37v1.77h-4.37v5.78h-2.17V185.27z"/>
	<path class="st4" d="M494.13,198.61c-3.72,0-6.74-2.79-6.74-6.76c0-3.95,3.02-6.74,6.74-6.74c3.76,0,6.74,2.79,6.74,6.74
		C500.87,195.82,497.89,198.61,494.13,198.61z M494.13,196.73c2.62,0,4.52-1.9,4.52-4.88s-1.9-4.84-4.52-4.84s-4.52,1.86-4.52,4.84
		S491.5,196.73,494.13,196.73z"/>
</g>
<g>
	<path class="st4" d="M585.7,191.92c0,4.07-2.77,6.55-7.01,6.55h-4.31v-13.2h4.31C582.93,185.27,585.7,187.84,585.7,191.92z
		 M578.69,196.71c3.12,0,4.79-1.79,4.79-4.79c0-3.02-1.67-4.88-4.79-4.88h-2.15v9.67H578.69z"/>
	<path class="st4" d="M593.87,198.61c-3.72,0-6.74-2.79-6.74-6.76c0-3.95,3.02-6.74,6.74-6.74c3.76,0,6.74,2.79,6.74,6.74
		C600.62,195.82,597.64,198.61,593.87,198.61z M593.87,196.73c2.62,0,4.52-1.9,4.52-4.88s-1.9-4.84-4.52-4.84
		c-2.62,0-4.52,1.86-4.52,4.84S591.25,196.73,593.87,196.73z"/>
	<path class="st4" d="M607.69,185.27h7.77v1.77h-5.61v3.89h4.37v1.77h-4.37v5.78h-2.17V185.27z"/>
	<path class="st4" d="M617.45,185.27h2.17v8.42c0,2.05,1.16,3.02,2.98,3.02c1.84,0,3-0.97,3-3.02v-8.42h2.17v8.38
		c0,3.36-2.43,4.96-5.19,4.96c-2.77,0-5.13-1.6-5.13-4.96V185.27z"/>
	<path class="st4" d="M641.43,185.25v13.22h-2.17l-6.52-9.86v9.86h-2.17v-13.22h2.17l6.52,9.84v-9.84H641.43z"/>
	<path class="st4" d="M655.6,191.92c0,4.07-2.77,6.55-7.01,6.55h-4.31v-13.2h4.31C652.83,185.27,655.6,187.84,655.6,191.92z
		 M648.59,196.71c3.12,0,4.79-1.79,4.79-4.79c0-3.02-1.67-4.88-4.79-4.88h-2.15v9.67H648.59z"/>
	<path class="st4" d="M665.05,187.02h-5.13v3.88h4.56v1.77h-4.56v4.05h5.13v1.77h-7.29v-13.22h7.29V187.02z"/>
	<path class="st4" d="M672.27,185.27c3.13,0,4.67,1.8,4.67,3.95c0,1.56-0.84,3.23-3.06,3.78l3.27,5.47h-2.58l-3.04-5.28h-1.65v5.28
		h-2.17v-13.2H672.27z M672.27,187.04h-2.39v4.43h2.39c1.69,0,2.45-0.93,2.45-2.24C674.72,187.89,673.96,187.04,672.27,187.04z"/>
	<path class="st4" d="M689.01,198.61c-2.64,0-4.67-1.44-4.67-3.78h2.32c0.09,1.08,0.85,1.96,2.36,1.96c1.52,0,2.37-0.82,2.37-1.94
		c0-3.19-7.01-1.12-7.01-5.98c0-2.32,1.84-3.76,4.54-3.76c2.53,0,4.31,1.33,4.5,3.59h-2.39c-0.08-0.89-0.86-1.71-2.22-1.75
		c-1.25-0.04-2.22,0.57-2.22,1.84c0,2.98,6.99,1.12,6.99,5.95C693.57,196.71,691.95,198.61,689.01,198.61z"/>
	<path class="st4" d="M703.43,187.02h-5.13v3.88h4.56v1.77h-4.56v4.05h5.13v1.77h-7.29v-13.22h7.29V187.02z"/>
	<path class="st4" d="M714.05,195.78h-5.53l-0.95,2.7h-2.26l4.73-13.22h2.51l4.73,13.22H715L714.05,195.78z M711.29,187.88
		l-2.17,6.14h4.31L711.29,187.88z"/>
	<path class="st4" d="M723.89,185.27c3.13,0,4.67,1.8,4.67,3.95c0,1.56-0.83,3.23-3.06,3.78l3.27,5.47h-2.58l-3.04-5.28h-1.65v5.28
		h-2.17v-13.2H723.89z M723.89,187.04h-2.39v4.43h2.39c1.69,0,2.45-0.93,2.45-2.24C726.34,187.89,725.58,187.04,723.89,187.04z"/>
	<path class="st4" d="M737.36,185.1c2.75,0,5.13,1.39,6.14,3.97h-2.6c-0.7-1.41-1.96-2.07-3.53-2.07c-2.62,0-4.52,1.86-4.52,4.84
		s1.9,4.86,4.52,4.86c1.58,0,2.83-0.67,3.53-2.07h2.6c-1.01,2.58-3.38,3.95-6.14,3.95c-3.72,0-6.74-2.77-6.74-6.74
		C730.62,187.89,733.64,185.1,737.36,185.1z"/>
	<path class="st4" d="M754.4,192.7h-6.21v5.78h-2.17v-13.2h2.17v5.66h6.21v-5.66h2.17v13.2h-2.17V192.7z"/>
</g>
<g>
	<path class="st4" d="M837.96,189.07h-2.6c-0.7-1.33-1.96-2-3.53-2c-2.62,0-4.52,1.86-4.52,4.77s1.9,4.79,4.52,4.79
		c2.39,0,3.89-1.44,4.22-3.67h-4.96v-1.73h7.28v1.69c-0.4,3.06-2.98,5.66-6.54,5.66c-3.72,0-6.74-2.77-6.74-6.74
		c0-3.95,3.02-6.74,6.74-6.74C834.58,185.1,836.96,186.49,837.96,189.07z"/>
	<path class="st4" d="M847.79,187.02h-5.13v3.88h4.56v1.77h-4.56v4.05h5.13v1.77h-7.29v-13.22h7.29V187.02z"/>
	<path class="st4" d="M849.76,185.27h9.21v1.77h-3.51v11.44h-2.17v-11.44h-3.53V185.27z"/>
	<path class="st4" d="M866.1,185.27h7.77v1.77h-5.6v3.89h4.37v1.77h-4.37v5.78h-2.17V185.27z"/>
	<path class="st4" d="M875.87,185.27h2.17v8.42c0,2.05,1.16,3.02,2.98,3.02c1.84,0,3-0.97,3-3.02v-8.42h2.17v8.38
		c0,3.36-2.43,4.96-5.19,4.96c-2.77,0-5.13-1.6-5.13-4.96V185.27z"/>
	<path class="st4" d="M899.85,185.25v13.22h-2.17l-6.52-9.86v9.86H889v-13.22h2.17l6.52,9.84v-9.84H899.85z"/>
	<path class="st4" d="M914.02,191.92c0,4.07-2.77,6.55-7.01,6.55h-4.31v-13.2h4.31C911.25,185.27,914.02,187.84,914.02,191.92z
		 M907.01,196.71c3.12,0,4.79-1.79,4.79-4.79c0-3.02-1.67-4.88-4.79-4.88h-2.15v9.67H907.01z"/>
	<path class="st4" d="M923.46,187.02h-5.13v3.88h4.56v1.77h-4.56v4.05h5.13v1.77h-7.29v-13.22h7.29V187.02z"/>
	<path class="st4" d="M930.68,185.27c3.13,0,4.67,1.8,4.67,3.95c0,1.56-0.84,3.23-3.06,3.78l3.27,5.47h-2.58l-3.04-5.28h-1.65v5.28
		h-2.17v-13.2H930.68z M930.68,187.04h-2.39v4.43h2.39c1.69,0,2.45-0.93,2.45-2.24C933.13,187.89,932.38,187.04,930.68,187.04z"/>
	<path class="st4" d="M943.07,185.27h2.34l4.64,10.35l4.62-10.35h2.32v13.2h-2.17v-9.04l-4.03,9.04h-1.5l-4.05-9.04v9.04h-2.17
		V185.27z"/>
	<path class="st4" d="M967.79,195.78h-5.53l-0.95,2.7h-2.26l4.73-13.22h2.51l4.73,13.22h-2.28L967.79,195.78z M965.04,187.88
		l-2.17,6.14h4.31L965.04,187.88z"/>
	<path class="st4" d="M972.39,185.27h9.21v1.77h-3.51v11.44h-2.17v-11.44h-3.53V185.27z"/>
	<path class="st4" d="M989.81,185.1c2.75,0,5.13,1.39,6.14,3.97h-2.6c-0.7-1.41-1.96-2.07-3.53-2.07c-2.62,0-4.52,1.86-4.52,4.84
		s1.9,4.86,4.52,4.86c1.58,0,2.83-0.67,3.53-2.07h2.6c-1.01,2.58-3.38,3.95-6.14,3.95c-3.72,0-6.74-2.77-6.74-6.74
		C983.07,187.89,986.09,185.1,989.81,185.1z"/>
	<path class="st4" d="M1006.85,192.7h-6.21v5.78h-2.17v-13.2h2.17v5.66h6.21v-5.66h2.17v13.2h-2.17V192.7z"/>
	<path class="st4" d="M1019.17,187.02h-5.13v3.88h4.56v1.77h-4.56v4.05h5.13v1.77h-7.29v-13.22h7.29V187.02z"/>
	<path class="st4" d="M1026.18,198.61c-2.64,0-4.67-1.44-4.67-3.78h2.32c0.1,1.08,0.86,1.96,2.36,1.96c1.52,0,2.38-0.82,2.38-1.94
		c0-3.19-7.01-1.12-7.01-5.98c0-2.32,1.84-3.76,4.54-3.76c2.53,0,4.31,1.33,4.5,3.59h-2.39c-0.08-0.89-0.86-1.71-2.22-1.75
		c-1.25-0.04-2.22,0.57-2.22,1.84c0,2.98,6.99,1.12,6.99,5.95C1030.74,196.71,1029.12,198.61,1026.18,198.61z"/>
</g>
<rect x="729.47" y="86.8" class="st4" width="134.43" height="3.9"/>
<rect x="464.25" y="86.8" class="st4" width="134.43" height="3.9"/>
<rect x="198.51" y="86.8" class="st4" width="134.43" height="3.9"/>
<g>
	<path class="st4" d="M666.44,70.18c6.67,0,10.31,3.86,10.31,8.74c0,4-2.53,6.72-5.15,7.59v0.18c3.5,1.06,5.75,3.96,5.75,8.6
		c0,5.34-3.77,9.39-10.76,9.39c-6.35,0-11.27-3.31-11.59-9.89h5.06c0.23,3.13,2.53,5.52,6.49,5.52c3.91,0,5.84-2.39,5.84-5.52
		c0-4.42-2.85-5.93-8.33-5.93h-1.2v-4.32h1.24c4.74-0.05,7.64-1.43,7.64-5.01c0-2.9-1.89-4.83-5.47-4.83
		c-3.68,0-5.38,2.21-5.71,4.55h-5.11C655.81,73.44,660.32,70.18,666.44,70.18z"/>
</g>
</svg>
