<?xml version="1.0" encoding="UTF-8"?>
<svg xmlns="http://www.w3.org/2000/svg" xmlns:xlink="http://www.w3.org/1999/xlink" viewBox="0 0 323.87 155.36">
  <defs>
    <style>.cls-1,.cls-10{fill:none;}.cls-2{fill:#fff;}.cls-3{clip-path:url(#clip-path);}.cls-4{fill:#009fe3;}.cls-5{clip-path:url(#clip-path-2);}.cls-6{clip-path:url(#clip-path-3);}.cls-7{clip-path:url(#clip-path-4);}.cls-8{clip-path:url(#clip-path-5);}.cls-9{clip-path:url(#clip-path-6);}.cls-10{stroke:#009fe3;stroke-width:0.21px;}</style>
    <clipPath id="clip-path">
      <path class="cls-1" d="M86,20.48h0a8.38,8.38,0,1,1,16.76,0h0V30.79H86ZM74,20.42h0V53.26a20.48,20.48,0,1,0,41,0h-12.1a8.38,8.38,0,1,1-16.76,0h0V42.89h28.87V20.42h0a20.47,20.47,0,0,0-40.94,0"></path>
    </clipPath>
    <clipPath id="clip-path-2">
      <path class="cls-1" d="M295,20.48h0a8.38,8.38,0,0,1,16.76,0h0V53.26h0a8.38,8.38,0,0,1-16.76,0h0Zm-12.09-.06h0V53.26a20.48,20.48,0,0,0,41,0V20.42h0a20.48,20.48,0,0,0-40.95,0"></path>
    </clipPath>
    <clipPath id="clip-path-3">
      <path class="cls-1" d="M242.8,30.75V12.14l8.38,0a8.38,8.38,0,0,1,8.38,8.38h0v1.93h0a8.37,8.37,0,0,1-8.38,8.37l-8.38,0M242.8,0V0H230.7V73.74h12.1V42.87h2.34v0a8.37,8.37,0,0,1,8.37,8.37c0,.15,0,1.84,0,2h.05A20.48,20.48,0,0,0,274,73.74V61.64a8.38,8.38,0,0,1-8.37-8.38h0c0-.15,0-1.84,0-2a20.31,20.31,0,0,0-3.56-11.53,20.45,20.45,0,0,0,9.6-17h0V19.94h0A20.46,20.46,0,0,0,251.18,0L242.8,0"></path>
    </clipPath>
    <clipPath id="clip-path-4">
      <path class="cls-1" d="M49.72,0V53.26c0,4.63-2.21,8.38-6.38,8.38S37,57.89,37,53.26V0H24.86V53.26c0,4.63-2.21,8.38-6.38,8.38s-6.39-3.75-6.39-8.38V0H0V53.26C0,64.57,8.27,73.74,18.48,73.74a17.45,17.45,0,0,0,12.43-5.36,17.42,17.42,0,0,0,12.43,5.36c10.2,0,18.47-9.17,18.47-20.48V0Z"></path>
    </clipPath>
    <clipPath id="clip-path-5">
      <path class="cls-1" d="M125.78,20.48a20.41,20.41,0,0,0,5.62,14.09l21.3,13.34a8.37,8.37,0,1,1-14.81,5.42h0V48.19H125.78v5.14h0a20.48,20.48,0,1,0,35.34-14.16s-19.77-11.49-21.31-13.34a8.38,8.38,0,1,1,14.82-5.36v5.15h12.1V20.36h0a20.48,20.48,0,0,0-40.95.12"></path>
    </clipPath>
    <clipPath id="clip-path-6">
      <path class="cls-1" d="M177.09,20.42h0V53.26a20.48,20.48,0,0,0,41,0V36.84H198.61V48.93H206v4.33h0a8.38,8.38,0,1,1-16.75,0h0V20.48h0a8.38,8.38,0,1,1,16.75,0h0v5.1H218v-5.2h0a20.47,20.47,0,0,0-40.94,0"></path>
    </clipPath>
  </defs>
  <title>corporate</title>
  <g id="Layer_2" data-name="Layer 2">
    <g id="Layer_1-2" data-name="Layer 1">
      <path class="cls-2" d="M102.82,20.48V30.79H86.05V20.48h0a8.38,8.38,0,1,1,16.76,0Zm0,22.41h12.09V20.42h0a20.47,20.47,0,0,0-40.94,0h0V53.26a20.48,20.48,0,1,0,41,0h-12.1a8.38,8.38,0,1,1-16.76,0h0V42.89Z"></path>
      <g class="cls-3">
        <rect class="cls-4" x="68.58" width="25.85" height="80.24"></rect>
      </g>
      <path class="cls-2" d="M311.77,20.48V53.26h0a8.38,8.38,0,0,1-16.76,0h0V20.48h0a8.38,8.38,0,0,1,16.76,0Zm12.1,32.78V20.42h0a20.48,20.48,0,0,0-40.95,0h0V53.26a20.48,20.48,0,0,0,41,0"></path>
      <g class="cls-5">
        <rect class="cls-4" x="281.88" width="21.51" height="80.24"></rect>
      </g>
      <path class="cls-2" d="M259.56,20.48h0v1.93h0a8.38,8.38,0,0,1-8.38,8.38l-8.38,0V12.14l8.38,0a8.38,8.38,0,0,1,8.38,8.38m6.06,32.78h0c0-.15,0-1.84,0-2a20.31,20.31,0,0,0-3.56-11.53,20.45,20.45,0,0,0,9.6-17h0V19.94h0A20.46,20.46,0,0,0,251.18,0L242.8,0V0H230.7V73.74h12.1V42.87h2.34v0a8.37,8.37,0,0,1,8.37,8.37c0,.16,0,1.84,0,2h.05A20.48,20.48,0,0,0,274,73.74V61.64a8.38,8.38,0,0,1-8.37-8.38"></path>
      <g class="cls-6">
        <rect class="cls-4" x="226.47" width="21.51" height="79.23"></rect>
      </g>
      <path class="cls-2" d="M61.81,53.26V0H49.72V53.26h0c0,4.63-2.21,8.38-6.38,8.38S37,57.89,37,53.26V0H24.86V53.26c0,4.63-2.21,8.38-6.38,8.38s-6.39-3.75-6.39-8.38V0H0V53.26C0,64.57,8.27,73.74,18.48,73.74a17.45,17.45,0,0,0,12.43-5.36,17.42,17.42,0,0,0,12.43,5.36c10.2,0,18.47-9.17,18.47-20.48"></path>
      <g class="cls-7">
        <rect class="cls-4" width="30.91" height="78.72"></rect>
      </g>
      <path class="cls-2" d="M154.63,25.62h12.1V20.36h0A20.48,20.48,0,1,0,131.4,34.57l21.3,13.34a8.37,8.37,0,1,1-14.81,5.42h0V48.19H125.78v5.14h0a20.48,20.48,0,1,0,35.34-14.16s-19.77-11.49-21.31-13.34a8.38,8.38,0,1,1,14.82-5.36Z"></path>
      <g class="cls-8">
        <rect class="cls-4" x="120.41" width="25.85" height="79.23"></rect>
      </g>
      <path class="cls-2" d="M218,53.26V36.84H198.61V48.93H206v4.33h0a8.38,8.38,0,1,1-16.75,0h0V20.48h0a8.38,8.38,0,1,1,16.75,0h0v5.11H218V20.38h0a20.47,20.47,0,0,0-40.94,0h0V53.26a20.48,20.48,0,0,0,41,0"></path>
      <g class="cls-9">
        <rect class="cls-4" x="171.71" width="25.85" height="78.72"></rect>
      </g>
      <path class="cls-4" d="M319.32,112.81c.16,2-.52,4.26-2.95,4.26-3.56,0-3.14-4.61-3.21-7h8.65c-.12-4.16.2-9.61-5.57-9.61-4.71,0-5.71,5.61-5.71,9.36,0,7.18,2.41,9.42,5.77,9.42,3.75,0,5.55-2.92,5.39-6.41ZM313.16,108c.1-2.11.16-5.38,3.11-5.38s2.82,3.3,2.92,5.38Zm-15.83,8.91h.07a4.1,4.1,0,0,0,3.71,2.34c4.81,0,5.71-5.51,5.71-10.58,0-3.65-1.32-8.2-5.83-8.2a4.25,4.25,0,0,0-3.69,2.47h-.06v-2H294.8v23.84h2.53Zm6.86-7.37c0,4.81-.83,7.56-3.46,7.56-3.49,0-3.4-4.8-3.4-7.27s.07-7.21,3.37-7.21,3.49,4.58,3.49,6.92M291,116.88a3.33,3.33,0,0,1-1.09,0c-.51-.26-.45-.9-.45-1.35V105.28c0-.42.45-4.84-4.84-4.84-3.59,0-5.41,1.6-5.29,5.29h2.28c0-2.08.29-3.14,2.59-3.14,2.06,0,2.82.77,2.82,2.79,0,.93.07,1.63-.48,2.05-.32.25-3.91,1.6-5.35,2.24a4.54,4.54,0,0,0-2.56,4.33c0,3.23,1,5.22,4.58,5.22a4.51,4.51,0,0,0,3.94-2.88h.07c.25,2.43,1.05,2.62,3.2,2.53a3,3,0,0,1,.58-.13Zm-4.17-3.43c0,2.89-2.11,3.62-3.07,3.62-2.05,0-2.5-1.15-2.5-2.95a3.16,3.16,0,0,1,1.57-3.07c1.34-.64,2.75-1.19,4-1.92Zm-16.53-10.86c2.4,0,2.91,2,2.95,3.94h2.37c0-3.3-1.7-6.09-5.29-6.09-5.45,0-6.15,5.26-6.15,9.61,0,4.62.77,9.17,6.21,9.17,4,0,5.26-3.27,5.36-6.7h-2.41c-.13,2.18-.38,4.55-3.14,4.55-3.24,0-3.4-4.13-3.4-6.47,0-2.53-.19-8,3.5-8m-24.2-1.67h-2.46v17.82h2.53V106.82a3.86,3.86,0,0,1,1.15-3.24,3.62,3.62,0,0,1,2.5-1c2.05,0,2.66,1.25,2.66,3.11v13H255V105c0-3.14-1.73-4.55-4.39-4.55a5.4,5.4,0,0,0-4.45,2.44h-.07Zm-11.08,0h-2.44v17.82h2.53v-10.8c0-3.24,1.93-5.29,5.19-4.71v-2.5a4.64,4.64,0,0,0-5.22,3.11H235Zm-9.74,11.89c.16,2-.52,4.26-3,4.26-3.56,0-3.14-4.61-3.21-7h8.65c-.12-4.16.2-9.61-5.57-9.61-4.71,0-5.7,5.61-5.7,9.36,0,7.18,2.4,9.42,5.76,9.42,3.75,0,5.55-2.92,5.39-6.41ZM219.11,108c.1-2.11.16-5.38,3.11-5.38s2.82,3.3,2.92,5.38Zm-8.3-11.89h-2.5v4.84h-2.46v2.15h2.46v12.75c0,2.69,1.13,3,2.63,2.92h2.79v-2.15H212c-1.41,0-1.18-.77-1.18-1.38V103.07h2.94v-2.15h-3Zm-7.94,9.62c.06-3.66-2-5.26-5.52-5.26-3.07,0-5.22,2-5.22,5s1.6,4,4.36,5.07c1.83.76,4.39,1,4.39,3.52,0,2.18-1.35,3-3.4,3-2.37,0-3.11-1.34-3-3.52h-2.4a5.43,5.43,0,0,0,1,3.81,5.33,5.33,0,0,0,4.42,1.86c3.66,0,6-2.08,6-5.48s-2.57-4-5.13-5.13c-1.73-.73-3.62-1-3.62-3.33,0-1.86,1-2.69,2.82-2.69,2.15,0,2.92,1,2.82,3.11ZM186,112.81c.16,2-.51,4.26-2.95,4.26-3.56,0-3.14-4.61-3.2-7h8.65c-.13-4.16.19-9.61-5.58-9.61-4.71,0-5.7,5.61-5.7,9.36,0,7.18,2.4,9.42,5.77,9.42,3.75,0,5.54-2.92,5.38-6.41ZM179.83,108c.09-2.11.16-5.38,3.11-5.38s2.82,3.3,2.91,5.38Zm-14-7h-2.63l-2.82,15.67h-.06L157,100.92h-2.62L159,118.74h2.63l2.82-15.67h.06l3,15.67h2.63l4.45-17.82H172l-3.11,15.67h-.07Zm-47.32,0H116v17.82h2.53V106.82a3.83,3.83,0,0,1,1.16-3.24,3.62,3.62,0,0,1,2.5-1c2,0,2.65,1.25,2.65,3.11v13h2.54V105c0-3.14-1.73-4.55-4.39-4.55a5.41,5.41,0,0,0-4.46,2.44h-.06Zm-14.84,0H101l-2.82,15.67h-.06l-3.24-15.67H92.26l4.58,17.82h2.63l2.82-15.67h.06l3,15.67H108l4.45-17.82h-2.62l-3.11,15.67h-.07ZM86.74,110c0,4.2-.73,7-3.75,7s-3.74-2.85-3.74-7c0-5.38,1.15-7.43,3.74-7.43s3.75,2,3.75,7.43m2.63-.8c0-5.38-2-8.78-6.38-8.78s-6.37,3.4-6.37,8.78c0,7.69,2.53,10,6.37,10s6.38-2.28,6.38-10M70.69,96.08h-2.5v4.84H65.72v2.15h2.47v12.75c0,2.69,1.12,3,2.63,2.92h2.79v-2.15h-1.7c-1.41,0-1.19-.77-1.19-1.38V103.07h3v-2.15h-3ZM56.56,112.81c.16,2-.51,4.26-3,4.26-3.56,0-3.14-4.61-3.2-7h8.65c-.13-4.16.19-9.61-5.58-9.61-4.71,0-5.7,5.61-5.7,9.36,0,7.18,2.4,9.42,5.77,9.42,3.75,0,5.54-2.92,5.38-6.41ZM50.41,108c.09-2.11.16-5.38,3.1-5.38s2.82,3.3,2.92,5.38Zm-15.83,8.91h.06a4.11,4.11,0,0,0,3.72,2.34c4.8,0,5.7-5.51,5.7-10.58,0-3.65-1.31-8.2-5.83-8.2a4.26,4.26,0,0,0-3.69,2.47h-.06v-2H32v23.84h2.54Zm6.85-7.37c0,4.81-.83,7.56-3.46,7.56-3.49,0-3.39-4.8-3.39-7.27s.06-7.21,3.36-7.21,3.49,4.58,3.49,6.92m-13.2,7.37a3.33,3.33,0,0,1-1.09,0c-.51-.26-.45-.9-.45-1.35V105.28c0-.42.45-4.84-4.84-4.84-3.58,0-5.41,1.6-5.28,5.29h2.27c0-2.08.29-3.14,2.6-3.14,2,0,2.82.77,2.82,2.79,0,.93.06,1.63-.48,2.05-.32.25-3.91,1.6-5.35,2.24A4.56,4.56,0,0,0,15.86,114c0,3.23,1,5.22,4.58,5.22a4.53,4.53,0,0,0,3.95-2.88h.06c.26,2.43,1.06,2.62,3.2,2.53a3.2,3.2,0,0,1,.58-.13Zm-4.16-3.43c0,2.89-2.12,3.62-3.08,3.62-2,0-2.5-1.15-2.5-2.95a3.16,3.16,0,0,1,1.57-3.07c1.35-.64,2.76-1.19,4-1.92ZM7.53,102.59c2.4,0,2.92,2,3,3.94h2.37c0-3.3-1.7-6.09-5.29-6.09-5.45,0-6.15,5.26-6.15,9.61,0,4.62.77,9.17,6.22,9.17,4,0,5.25-3.27,5.35-6.7H10.57c-.12,2.18-.38,4.55-3.14,4.55C4.2,117.07,4,112.94,4,110.6c0-2.53-.19-8,3.49-8"></path>
      <path class="cls-4" d="M141.53,108.17c1.57-1,3.21-2.64,3.21-4.65a3.72,3.72,0,1,0-7.44.15,6.6,6.6,0,0,0,1.77,4.18c-2.24,1.41-3.83,2.81-3.83,5.64a5.07,5.07,0,0,0,5.47,5.42,5.34,5.34,0,0,0,4.4-2.11l1.17,1.71h2.51l-2.46-3.45a11.87,11.87,0,0,0,1.34-5.15h-1.84a12.69,12.69,0,0,1-.72,3.48Zm-.89-1.37a6.31,6.31,0,0,1-1.45-3.36,1.77,1.77,0,1,1,3.51.08c0,1.52-.95,2.44-2.06,3.28m3.38,8.51a4.14,4.14,0,0,1-3.09,1.74,3.32,3.32,0,0,1-3.55-3.53c0-2,1-3.11,2.58-4.26Z"></path>
      <path class="cls-10" d="M141.53,108.17c1.57-1,3.21-2.64,3.21-4.65a3.72,3.72,0,1,0-7.44.15,6.6,6.6,0,0,0,1.77,4.18c-2.24,1.41-3.83,2.81-3.83,5.64a5.07,5.07,0,0,0,5.47,5.42,5.34,5.34,0,0,0,4.4-2.11l1.17,1.71h2.51l-2.46-3.45a11.87,11.87,0,0,0,1.34-5.15h-1.84a12.69,12.69,0,0,1-.72,3.48Zm-.89-1.37a6.31,6.31,0,0,1-1.45-3.36,1.77,1.77,0,1,1,3.51.08C142.7,105,141.75,106,140.64,106.8Zm3.38,8.51a4.14,4.14,0,0,1-3.09,1.74,3.32,3.32,0,0,1-3.55-3.53c0-2,1-3.11,2.58-4.26Z"></path>
      <path class="cls-2" d="M319.57,131h-2.24v4.32h-2.22v1.92h2.22v11.39c0,2.4,1,2.63,2.36,2.6h2.5v-1.92h-1.52c-1.27,0-1.07-.68-1.07-1.23V137.19h2.65v-1.92h-2.68Zm-15.66,4.32H301.7v15.91H304V140.54a3.41,3.41,0,0,1,1-2.89,3.27,3.27,0,0,1,2.24-.89c1.85,0,2.39,1.12,2.39,2.78v11.64h2.28V138.91c0-2.81-1.56-4.07-3.95-4.07a4.89,4.89,0,0,0-4,2.18h-.06Zm-8.83,10.62c.14,1.8-.46,3.8-2.65,3.8-3.19,0-2.82-4.12-2.88-6.26h7.77c-.11-3.72.18-8.59-5-8.59-4.23,0-5.13,5-5.13,8.36,0,6.41,2.16,8.41,5.18,8.41,3.37,0,5-2.6,4.84-5.72Zm-5.53-4.32c.09-1.89.15-4.81,2.8-4.81s2.53,3,2.61,4.81Zm-22.39-1a3.37,3.37,0,0,1,1-2.89,3.29,3.29,0,0,1,2.25-.89c1.84,0,2.38,1.12,2.38,2.78v11.64h2.28V140.54a3.4,3.4,0,0,1,1-2.89,3.32,3.32,0,0,1,2.13-.89c2,0,2.45,1,2.45,2.78v11.64h2.27v-11.5c0-1,.06-2.78-1-3.72a4.37,4.37,0,0,0-2.94-1.12,4.79,4.79,0,0,0-4.29,2.52,4.19,4.19,0,0,0-3.8-2.52,4.51,4.51,0,0,0-3.8,2.46h-.05v-2h-2.19v15.91h2.27Zm-8.6-9.59h-2.25v4.32H254.1v1.92h2.21v11.39c0,2.4,1,2.63,2.36,2.6h2.51v-1.92h-1.53c-1.27,0-1.06-.68-1.06-1.23V137.19h2.64v-1.92h-2.67Zm-7.43,8.59c.06-3.27-1.78-4.7-4.95-4.7a4.35,4.35,0,0,0-4.69,4.5c0,2.77,1.44,3.6,3.92,4.52,1.64.68,3.94.88,3.94,3.14,0,1.95-1.21,2.69-3,2.69-2.13,0-2.79-1.2-2.71-3.14h-2.16a4.86,4.86,0,0,0,.9,3.4,4.8,4.8,0,0,0,4,1.66c3.28,0,5.41-1.86,5.41-4.89s-2.3-3.55-4.61-4.58c-1.55-.66-3.25-.92-3.25-3,0-1.66.92-2.4,2.53-2.4,1.93,0,2.62.89,2.54,2.78Zm-15.45,6.35c.14,1.8-.46,3.8-2.65,3.8-3.19,0-2.82-4.12-2.88-6.26h7.77c-.11-3.72.18-8.59-5-8.59-4.23,0-5.12,5-5.12,8.36,0,6.41,2.16,8.41,5.18,8.41,3.37,0,5-2.6,4.84-5.72Zm-5.53-4.32c.09-1.89.15-4.81,2.79-4.81s2.54,3,2.62,4.81ZM218,151.18h2.47l4.81-15.91H223l-3.63,14h-.06l-3.62-14h-2.36ZM202,135.27h-2.22v15.91H202V140.54a3.41,3.41,0,0,1,1-2.89,3.27,3.27,0,0,1,2.24-.89c1.85,0,2.39,1.12,2.39,2.78v11.64H210V138.91c0-2.81-1.56-4.07-3.95-4.07a4.89,4.89,0,0,0-4,2.18H202Zm-7.23-5.55h-2.27v2.86h2.27Zm0,5.55h-2.27v15.91h2.27Zm-33.67,10.62c.15,1.8-.46,3.8-2.64,3.8-3.2,0-2.83-4.12-2.88-6.26h7.77c-.12-3.72.17-8.59-5-8.59-4.23,0-5.12,5-5.12,8.36,0,6.41,2.16,8.41,5.18,8.41,3.37,0,5-2.6,4.83-5.72Zm-5.52-4.32c.08-1.89.14-4.81,2.79-4.81s2.53,3,2.62,4.81Zm-8.92-4.67h-.06a4.31,4.31,0,0,0-3.69-2.06c-3.42,0-5,3.69-4.8,8.36.06,1.4-.35,8.41,4.69,8.41,1.93,0,2.91-.63,3.88-2.52h.06v2.09h2.19V129.72h-2.27Zm0,8c0,1.81-.67,4.75-3,4.75-3.1,0-3.22-3.11-3.22-6.55,0-4.89,1.24-6.38,3.14-6.38,3.05,0,3.11,4,3.11,6.21Zm-11.57,4.58a2.69,2.69,0,0,1-1,0c-.46-.23-.41-.8-.41-1.2v-9.13c0-.37.41-4.32-4.34-4.32-3.22,0-4.87,1.43-4.75,4.72h2c0-1.85.26-2.8,2.33-2.8,1.85,0,2.54.69,2.54,2.49,0,.83.05,1.46-.43,1.83-.29.23-3.52,1.43-4.81,2A4.07,4.07,0,0,0,124,147c0,2.89.92,4.66,4.11,4.66a4,4,0,0,0,3.54-2.57h.06c.23,2.17,1,2.34,2.88,2.26a3,3,0,0,1,.52-.12Zm-3.75-3.06a2.91,2.91,0,0,1-2.76,3.23c-1.84,0-2.24-1-2.24-2.63a2.83,2.83,0,0,1,1.41-2.75c1.21-.57,2.47-1.05,3.59-1.71Zm-14.18-11.19H115v15.91h2.27v-9.64c0-2.89,1.73-4.72,4.66-4.21V135.1a4.18,4.18,0,0,0-4.69,2.78h0ZM108.47,131h-2.24v4.32H104v1.92h2.22v11.39c0,2.4,1,2.63,2.36,2.6h2.5v-1.92h-1.52c-1.27,0-1.07-.68-1.07-1.23V137.19h2.65v-1.92h-2.68ZM97.68,151.18a3.56,3.56,0,0,1-.75,2.52,1.2,1.2,0,0,1-.66.37v1.29a3.82,3.82,0,0,0,1.12-.57,3.69,3.69,0,0,0,1.41-3.09c.12-1.09.09-2.92.09-3.38H96.27v2.86ZM75.17,140.54a3.37,3.37,0,0,1,1-2.89,3.29,3.29,0,0,1,2.25-.89c1.84,0,2.39,1.12,2.39,2.78v11.64h2.27V140.54a3.38,3.38,0,0,1,1-2.89,3.27,3.27,0,0,1,2.13-.89c2,0,2.44,1,2.44,2.78v11.64H91v-11.5c0-1,0-2.78-1-3.72A4.35,4.35,0,0,0,87,134.84c-2,0-3.16.89-4.29,2.52a4.19,4.19,0,0,0-3.8-2.52,4.49,4.49,0,0,0-3.79,2.46h-.06v-2H72.9v15.91h2.27Zm-7.16-1c.06-3.27-1.79-4.7-5-4.7a4.34,4.34,0,0,0-4.69,4.5c0,2.77,1.44,3.6,3.91,4.52,1.64.68,3.94.88,3.94,3.14,0,1.95-1.21,2.69-3,2.69-2.13,0-2.79-1.2-2.7-3.14H58.31a4.41,4.41,0,0,0,4.86,5.06c3.28,0,5.41-1.86,5.41-4.89s-2.3-3.55-4.6-4.58c-1.56-.66-3.25-.92-3.25-3,0-1.66.92-2.4,2.53-2.4,1.93,0,2.62.89,2.53,2.78Zm-13.84-9.82H51.89v2.86h2.28Zm0,5.55H51.89v15.91h2.28Zm-10.28,0H41.7v15.91H44v-9.64c0-2.89,1.72-4.72,4.66-4.21V135.1A4.17,4.17,0,0,0,44,137.88h-.06Zm-9.84,15.91h2.27V135.27H34.05v10.22a5.39,5.39,0,0,1-.66,2.8,3.26,3.26,0,0,1-2.74,1.4c-1.61,0-2-.71-2-2.06V135.27H26.33v12.28c0,2.8,1.47,4.06,3.86,4.06a4.2,4.2,0,0,0,3.8-2.52h.06ZM19.43,143.4c0,3.75-.66,6.29-3.37,6.29s-3.37-2.54-3.37-6.29c0-4.81,1-6.64,3.37-6.64s3.37,1.83,3.37,6.64m2.36-.72c0-4.8-1.79-7.84-5.73-7.84s-5.73,3-5.73,7.84c0,6.87,2.28,8.93,5.73,8.93s5.73-2,5.73-8.93M4.72,131H2.48v4.32H.26v1.92H2.48v11.39c0,2.4,1,2.63,2.36,2.6h2.5v-1.92H5.81c-1.26,0-1.06-.68-1.06-1.23V137.19H7.4v-1.92H4.72Z"></path>
      <path class="cls-2" d="M177.28,141.47c1.44-1,3-2.43,3-4.28a3.44,3.44,0,1,0-6.87.14,6.06,6.06,0,0,0,1.63,3.84c-2.07,1.3-3.54,2.58-3.54,5.18a4.67,4.67,0,0,0,5.06,5,5,5,0,0,0,4.07-1.94l1.08,1.58H184l-2.28-3.18a10.84,10.84,0,0,0,1.24-4.73h-1.7a12.15,12.15,0,0,1-.66,3.2Zm-.83-1.26a5.84,5.84,0,0,1-1.33-3.08,1.63,1.63,0,1,1,3.24.06,3.77,3.77,0,0,1-1.91,3m3.12,7.81a3.78,3.78,0,0,1-2.84,1.6,3.06,3.06,0,0,1-3.29-3.24c0-1.88.94-2.86,2.39-3.91Z"></path>
      <path class="cls-2" d="M177.28,141.47c1.44-1,3-2.43,3-4.28a3.44,3.44,0,1,0-6.87.14,6.06,6.06,0,0,0,1.63,3.84c-2.07,1.3-3.54,2.58-3.54,5.18a4.67,4.67,0,0,0,5.06,5,5,5,0,0,0,4.07-1.94l1.08,1.58H184l-2.28-3.18a10.84,10.84,0,0,0,1.24-4.73h-1.7a12.15,12.15,0,0,1-.66,3.2Zm-.83-1.26a5.84,5.84,0,0,1-1.33-3.08,1.63,1.63,0,1,1,3.24.06A3.77,3.77,0,0,1,176.45,140.21Zm3.12,7.81a3.78,3.78,0,0,1-2.84,1.6,3.06,3.06,0,0,1-3.29-3.24c0-1.88.94-2.86,2.39-3.91Z"></path>
    </g>
  </g>
</svg>
